<svg width="61" height="26" fill="none" xmlns="http://www.w3.org/2000/svg"><g style="mix-blend-mode:exclusion" fill="#fff"><path d="M16.698 18.28H9.354v-1.362l3.887-3.765c.946-.897 1.418-1.673 1.418-2.328 0-.504-.16-.903-.478-1.195-.318-.292-.732-.438-1.242-.438-.935 0-1.625.438-2.071 1.315l-1.545-.862c.34-.695.828-1.225 1.465-1.587a4.147 4.147 0 012.135-.56c.988 0 1.826.292 2.517.877.7.595 1.051 1.391 1.051 2.39 0 1.068-.632 2.217-1.896 3.447L12.079 16.6h4.62v1.678zM25.038 9.176l-2.262 2.843c.829.182 1.487.544 1.976 1.089.499.534.748 1.19.748 1.966 0 1.058-.377 1.89-1.13 2.495-.744.604-1.668.907-2.773.907-.87 0-1.64-.187-2.31-.56a3.241 3.241 0 01-1.433-1.633l1.561-.862c.33.908 1.057 1.361 2.182 1.361.638 0 1.142-.15 1.514-.453.372-.313.557-.731.557-1.255 0-.525-.185-.938-.557-1.24-.372-.303-.876-.454-1.514-.454h-.414l-.733-1.043 2.406-3.01h-4.668V7.696h6.85v1.481z"/></g><path d="M38.829 8.144h1.966v.637h-1.284v2.744h-.682V8.144zM44.167 11.085c-.349.338-.773.507-1.274.507-.5 0-.926-.169-1.275-.507a1.7 1.7 0 01-.518-1.25c0-.493.172-.909.518-1.247.35-.341.774-.512 1.275-.512.5 0 .925.17 1.274.512.35.338.524.754.524 1.246 0 .493-.175.91-.524 1.251zm-2.07-.454c.211.206.476.31.796.31.32 0 .584-.104.795-.31.214-.21.321-.475.321-.797 0-.322-.107-.587-.32-.797a1.093 1.093 0 00-.796-.314c-.316 0-.581.105-.796.314-.214.21-.32.475-.32.797 0 .322.106.588.32.797zM47.97 8.144v2.743h.37v1.285h-.681v-.647h-1.912v.647h-.682v-1.285h.336c.191-.257.287-.639.287-1.145V8.144h2.282zm-1.838 2.743h1.156v-2.12h-.919v.985c0 .493-.079.871-.237 1.135zM52.075 11.525h-.74l-.208-.609h-1.379l-.207.609h-.736l1.21-3.381h.845l1.215 3.38zM50.44 8.912l-.474 1.381h.948l-.474-1.381zM56.205 9.486V8.144h.677v3.38h-.677v-1.4H54.92v1.4h-.681v-3.38h.681v1.342h1.285zM60.785 11.525h-.741l-.208-.609h-1.378l-.208.609h-.736l1.21-3.381h.845l1.215 3.38zm-1.636-2.613l-.474 1.381h.949l-.475-1.381zM38.829 13.94h1.29c.329 0 .609.11.84.328.226.22.34.488.34.807 0 .319-.114.587-.34.806-.231.22-.511.329-.84.329h-.608v1.11h-.682v-3.38zm.682 1.647h.607a.486.486 0 00.361-.145.51.51 0 00.143-.367.5.5 0 00-.143-.367.486.486 0 00-.36-.145h-.608v1.024zM43.329 17.32h-1.29v-3.38h.682v1.11h.608c.329 0 .609.11.84.329.227.219.34.488.34.807 0 .318-.113.587-.34.806-.231.22-.511.329-.84.329zm2.173 0h-.677v-3.38h.677v3.38zm-2.781-1.646v1.024h.608a.486.486 0 00.36-.145.5.5 0 00.144-.367.5.5 0 00-.144-.367.486.486 0 00-.36-.145h-.608zM48.407 15.282V13.94h.677v3.38h-.677v-1.4h-1.284v1.4h-.682v-3.38h.682v1.342h1.284zM51.396 15.582l1.33 1.739h-.786l-1.235-1.585v1.585h-.682V13.94h.682v1.492l1.185-1.492h.786l-1.28 1.642zM54.04 15.925v.758h1.458v.638h-2.14V13.94h2.115v.637H54.04v.72h1.31v.628h-1.31z" fill="#fff"/><path d="M8.639 22.194c.181-.514.162-1.508-.065-2.133a60.657 60.657 0 00-.126-.037c-.344.25-.546.547-.707.861-.54 1.125-.003 1.438.006 2.326a17.493 17.493 0 01-2.261-2.947c.095-1.175.788-.697 1.218-2.292.08-.324.142-.654.102-1.04l-.113-.058a2.525 2.525 0 00-.898.655c-.826.948-.353 1.276-.64 2.163a15.39 15.39 0 01-1.324-3.176c.264-.864.525-.702 1.18-1.226.385-.315.843-1.084.927-1.715l-.094-.076c-.41.078-.723.243-1.008.435-1.161.82-.46.975-1.178 1.923a14.504 14.504 0 01-.4-3.26c.669-1.246 1.083-.397 2.212-1.638.208-.241.402-.494.532-.839-.024-.03-.048-.06-.071-.092a2.593 2.593 0 00-1.044.214c-1.324.572-.656.896-1.616 1.623a14.59 14.59 0 01.497-3.188c.774-.94.636-.54 1.748-.83.562-.15 1.223-.713 1.505-1.148a2.367 2.367 0 00-.04-.103c-.625-.144-1.453.031-1.888.373-.497.4-.424.637-1.083.91A15.735 15.735 0 015.417 4.81l.034.036c1.43-1.168 1.277-.087 2.762-.814.277-.144.55-.306.818-.579l-.01-.112c-.523-.256-1.324-.241-1.813.012-.528.282-.62.586-1.275.695.004-.023.005-.045.01-.069C6.902 2.562 8.119 1.221 9.596 0a19.729 19.729 0 00-3.573 3.542c.066-.85.058-1.645-.709-2.313l-.15.044c-.773 1.086-.901 2.325.082 3.358a16.453 16.453 0 00-1.418 2.643c-.184-.845-.58-1.685-1.423-2.204l-.134.069C1.856 6.38 2.141 7.71 3.351 8.553c-.289.897-.494 1.81-.61 2.731C2.278 10.48 1.65 9.698.65 9.281c-.036.029-.073.06-.11.088-.027 1.339.67 2.622 2.088 3.302-.03.909.025 1.82.164 2.727-.704-.72-1.587-1.415-2.709-1.702L0 13.803c.384 1.344 1.436 2.514 3.08 3.018.225.885.532 1.76.921 2.62-1.395-.89-2.438-1.205-3.268-1.293l-.053.12c.799 1.283 2.176 2.286 4.038 2.566a17.76 17.76 0 001.666 2.409c-1.733-.661-2.905-.811-3.758-.781l-.017.128c1.217 1.164 2.906 1.936 4.94 1.95.494.502 1.025.99 1.596 1.46l.9-.719a20.243 20.243 0 01-1.822-1.584c-.13-.774.168-.826.416-1.503zM31.219 19.442c.413-.859.736-1.735.974-2.62 1.554-.45 2.81-1.522 3.262-3.018a7.022 7.022 0 00-.09-.107c-1.189.288-2.122.985-2.867 1.702a13.96 13.96 0 00.173-2.727c1.503-.682 2.24-1.965 2.212-3.301l-.118-.09c-1.05.415-1.716 1.192-2.212 2.004a14.39 14.39 0 00-.646-2.731c1.065-.686 1.659-1.961 1.144-3.415l-.141-.068c-.898.52-1.315 1.366-1.507 2.204a16.182 16.182 0 00-1.5-2.645c1.04-1.037.91-2.265.085-3.358l-.16-.044c-.81.668-.82 1.463-.75 2.314-1.038-1.27-2.3-2.462-3.782-3.542 1.564 1.22 2.852 2.562 3.865 3.98.006.023.007.044.012.068-.693-.11-.79-.414-1.351-.695-.518-.253-1.365-.268-1.919-.012l-.011.112c.382.368 1.173.812 1.772.85 1.068.058.909-.314 2.017.543l.037-.036a15.311 15.311 0 011.489 3.07c-1.174-.46-.576-.976-2.073-1.28-.334-.06-.679-.09-1.07-.004l-.047.104c.215.312.468.52.73.713 1.476 1.026 1.594-.009 2.715 1.265.303 1.053.478 2.12.526 3.188-1.146-.821-.266-1.034-1.71-1.623-.33-.124-.676-.222-1.104-.214l-.075.093c.238.598.88 1.227 1.335 1.441.873.402 1.065.148 1.568 1.036a13.738 13.738 0 01-.422 3.259c-.713-.888-.034-1.113-1.248-1.923a2.851 2.851 0 00-1.066-.435l-.1.077c.052.37.197.664.357.95.864 1.445 1.476.758 1.873 1.99a14.93 14.93 0 01-1.4 3.177c-.26-.756-.01-.591-.156-1.278-.128-.575-.753-1.253-1.473-1.54l-.12.057c-.226 2.088 1.289 2.07 1.397 3.332a17.647 17.647 0 01-2.394 2.948c.01-.888.578-1.2.007-2.326a2.342 2.342 0 00-.749-.861l-.134.037c-.24.624-.26 1.617-.068 2.132.264.68.578.73.441 1.501a21.141 21.141 0 01-1.929 1.585l.954.719c.602-.47 1.166-.958 1.689-1.46a8.198 8.198 0 002.4-.346c.972-.332 1.945-.805 2.828-1.601l-.018-.129c-.903-.029-2.143.12-3.978.782a17.77 17.77 0 001.764-2.41c1.981-.28 3.435-1.29 4.274-2.566-.02-.04-.037-.08-.056-.12-.875.088-1.98.402-3.456 1.292z" fill="#D34141"/></svg>