<svg width="103" height="44" fill="none" xmlns="http://www.w3.org/2000/svg"><g style="mix-blend-mode:exclusion" fill="#fff"><path d="M28.26 30.934H15.83v-2.303l6.578-6.372c1.6-1.518 2.4-2.832 2.4-3.94 0-.853-.27-1.527-.81-2.022-.539-.495-1.24-.742-2.102-.742-1.582 0-2.75.742-3.505 2.226l-2.615-1.458c.575-1.178 1.402-2.073 2.48-2.687 1.079-.631 2.283-.947 3.613-.947 1.671 0 3.091.495 4.26 1.484 1.186 1.007 1.779 2.354 1.779 4.043 0 1.808-1.07 3.753-3.208 5.835l-4.26 4.043h7.818v2.84zM42.373 15.53l-3.828 4.81c1.402.307 2.516.921 3.343 1.843.845.904 1.267 2.013 1.267 3.326 0 1.791-.638 3.199-1.914 4.222-1.258 1.024-2.822 1.536-4.691 1.536-1.474 0-2.777-.316-3.91-.947-1.131-.648-1.94-1.57-2.425-2.764l2.641-1.458c.558 1.535 1.789 2.303 3.694 2.303 1.078 0 1.932-.256 2.561-.768.629-.529.944-1.237.944-2.124s-.315-1.586-.944-2.098c-.63-.512-1.483-.768-2.561-.768h-.701l-1.24-1.765 4.07-5.093h-7.898v-2.763h11.592v2.507z"/></g><path d="M65.71 13.781h3.328v1.08h-2.174v4.642H65.71V13.78zM74.745 18.759c-.591.572-1.31.858-2.157.858s-1.566-.286-2.157-.858a2.878 2.878 0 01-.878-2.117c0-.834.293-1.537.878-2.109.59-.577 1.31-.866 2.157-.866s1.566.289 2.157.866c.59.572.886 1.275.886 2.109 0 .834-.296 1.54-.886 2.117zm-3.503-.768c.357.348.805.523 1.346.523.54 0 .99-.175 1.346-.523.362-.355.543-.804.543-1.349 0-.545-.18-.994-.543-1.349-.362-.354-.811-.531-1.346-.531s-.984.177-1.346.531c-.362.355-.544.804-.544 1.349 0 .545.182.994.544 1.349zM81.18 13.781v4.643h.627v2.174h-1.154v-1.095h-3.235v1.095h-1.154v-2.174h.569c.323-.436.484-1.082.484-1.937V13.78h3.863zm-3.11 4.643h1.956v-3.588h-1.555v1.667c0 .834-.134 1.474-.401 1.92zM88.127 19.503h-1.254l-.351-1.03h-2.333l-.35 1.03h-1.246l2.048-5.722h1.43l2.056 5.722zM85.36 15.08l-.803 2.338h1.605l-.802-2.338zM95.116 16.053v-2.272h1.145v5.722h-1.145v-2.37h-2.174v2.37H91.79V13.78h1.153v2.272h2.174zM102.866 19.503h-1.254l-.351-1.03h-2.333l-.35 1.03h-1.246l2.048-5.722h1.429l2.057 5.722zm-2.767-4.422l-.803 2.338h1.605l-.802-2.338zM65.71 23.59h2.182c.558 0 1.032.185 1.422.555.384.371.577.826.577 1.365 0 .54-.193.995-.577 1.365-.39.371-.864.556-1.422.556h-1.028v1.88H65.71V23.59zm1.154 2.787h1.028a.822.822 0 00.61-.245.864.864 0 00.243-.622c0-.25-.08-.457-.242-.62a.823.823 0 00-.61-.246h-1.029v1.733zM73.325 29.311h-2.182V23.59h1.154v1.88h1.028c.558 0 1.031.185 1.421.555.385.37.577.826.577 1.365 0 .54-.192.995-.577 1.365-.39.37-.863.556-1.42.556zm3.679 0h-1.146V23.59h1.146v5.721zm-4.707-2.787v1.733h1.028a.823.823 0 00.61-.245.847.847 0 00.243-.622c0-.25-.08-.457-.242-.62a.822.822 0 00-.61-.246h-1.03zM81.92 25.862V23.59h1.145v5.721H81.92v-2.37h-2.174v2.37h-1.153V23.59h1.153v2.272h2.174zM86.978 26.369l2.249 2.942h-1.33l-2.09-2.68v2.68h-1.153V23.59h1.154v2.525l2.006-2.525h1.33l-2.166 2.779zM91.453 26.949v1.283h2.466v1.08h-3.62V23.59h3.578v1.079h-2.424v1.217h2.215v1.063h-2.215z" fill="#fff"/><path d="M14.62 37.559c.307-.87.275-2.551-.11-3.609l-.214-.063c-.581.424-.924.925-1.196 1.457-.913 1.904-.004 2.434.01 3.936a29.612 29.612 0 01-3.826-4.987c.161-1.99 1.334-1.18 2.062-3.88.133-.547.239-1.106.171-1.76l-.19-.097c-.664.28-1.12.674-1.52 1.108-1.398 1.605-.597 2.159-1.084 3.661a26.039 26.039 0 01-2.24-5.375c.447-1.461.889-1.188 1.997-2.074.651-.534 1.426-1.835 1.57-2.903a5.765 5.765 0 01-.16-.129c-.695.132-1.223.412-1.705.736-1.966 1.39-.78 1.651-1.995 3.254a24.547 24.547 0 01-.675-5.514c1.13-2.111 1.83-.674 3.742-2.774.352-.408.68-.836.9-1.42l-.12-.155c-.684-.012-1.24.151-1.767.362-2.24.967-1.11 1.515-2.734 2.746a24.69 24.69 0 01.84-5.395c1.31-1.592 1.077-.913 2.958-1.403.953-.255 2.07-1.208 2.548-1.944a3.996 3.996 0 00-.07-.174c-1.055-.245-2.457.053-3.193.63-.84.678-.718 1.08-1.832 1.54a26.628 26.628 0 012.38-5.192c.019.02.04.039.058.06 2.418-1.977 2.16-.148 4.674-1.378.469-.243.93-.518 1.385-.98l-.019-.189c-.884-.434-2.239-.408-3.067.02-.893.478-1.05.993-2.158 1.176.008-.039.01-.076.019-.116 1.62-2.399 3.678-4.668 6.179-6.734-2.369 1.828-4.386 3.844-6.047 5.994.112-1.44.097-2.784-1.199-3.915l-.254.075c-1.31 1.837-1.526 3.934.137 5.683a27.843 27.843 0 00-2.399 4.474c-.31-1.43-.98-2.853-2.408-3.73-.075.037-.15.076-.226.115-.702 2.102-.218 4.352 1.83 5.778a25.562 25.562 0 00-1.034 4.622c-.783-1.36-1.846-2.684-3.535-3.39l-.189.15C.87 18.12 2.051 20.292 4.45 21.443c-.05 1.538.041 3.08.277 4.614-1.192-1.216-2.685-2.392-4.584-2.88L0 23.359c.65 2.276 2.431 4.256 5.214 5.108.38 1.497.9 2.98 1.558 4.433-2.362-1.504-4.127-2.037-5.532-2.188l-.088.203c1.35 2.172 3.682 3.87 6.832 4.343a30.056 30.056 0 002.82 4.077c-2.933-1.119-4.917-1.373-6.36-1.322l-.028.218c2.058 1.97 4.917 3.276 8.358 3.299A35.44 35.44 0 0015.476 44L17 42.783a34.247 34.247 0 01-3.084-2.681c-.22-1.309.284-1.397.704-2.543zM52.831 32.901a25.436 25.436 0 001.65-4.433c2.629-.76 4.754-2.576 5.519-5.108l-.151-.18c-2.012.487-3.592 1.666-4.852 2.88.248-1.534.346-3.077.292-4.615 2.544-1.154 3.79-3.326 3.743-5.587-.066-.05-.131-.1-.2-.15-1.776.701-2.903 2.016-3.742 3.39a24.373 24.373 0 00-1.093-4.622c1.802-1.161 2.806-3.319 1.936-5.78l-.24-.115c-1.519.882-2.224 2.312-2.549 3.73a27.388 27.388 0 00-2.54-4.475c1.76-1.756 1.54-3.834.144-5.683l-.269-.075c-1.37 1.13-1.388 2.475-1.269 3.916C47.452 3.844 45.316 1.828 42.81 0c2.647 2.066 4.826 4.336 6.54 6.735.01.039.013.075.02.115-1.172-.184-1.338-.7-2.286-1.176-.876-.428-2.31-.454-3.247-.02-.005.064-.014.127-.02.19.648.622 1.986 1.374 3 1.439 1.807.098 1.538-.532 3.414.918l.062-.06a25.915 25.915 0 012.52 5.193c-1.986-.778-.974-1.65-3.508-2.165-.566-.1-1.15-.151-1.813-.007l-.077.176c.362.528.79.882 1.235 1.208 2.497 1.735 2.697-.016 4.595 2.14.512 1.782.808 3.588.89 5.395-1.94-1.39-.45-1.75-2.894-2.746-.558-.21-1.145-.376-1.868-.362-.042.052-.086.103-.128.156.403 1.012 1.488 2.077 2.259 2.44 1.478.68 1.803.25 2.655 1.753a23.25 23.25 0 01-.715 5.515c-1.207-1.503-.058-1.884-2.111-3.254-.51-.326-1.07-.604-1.805-.736l-.17.129c.088.626.333 1.123.604 1.609 1.462 2.444 2.498 1.281 3.171 3.368a25.27 25.27 0 01-2.37 5.375c-.438-1.279-.018-1-.263-2.162-.217-.973-1.275-2.121-2.494-2.608l-.203.098c-.382 3.533 2.181 3.502 2.364 5.64a29.869 29.869 0 01-4.05 4.987c.015-1.502.977-2.031.011-3.936-.289-.532-.651-1.034-1.267-1.457l-.227.063c-.406 1.056-.44 2.737-.115 3.608.446 1.151.978 1.235.747 2.54A35.772 35.772 0 0142 42.784L43.613 44a36.751 36.751 0 002.859-2.471c1.567-.01 2.87-.22 4.063-.585 1.643-.563 3.29-1.362 4.784-2.71l-.03-.218c-1.527-.05-3.627.203-6.732 1.323a30.074 30.074 0 002.986-4.078c3.352-.474 5.812-2.184 7.232-4.343l-.094-.203c-1.481.15-3.35.681-5.85 2.186z" fill="#D34141"/></svg>