<svg width="25" height="25" fill="none" xmlns="http://www.w3.org/2000/svg"><ellipse cx="12" cy="12.5" rx="10" ry="7.5" fill="#fff"/><path d="M12.53.99C5.635.99 0 5.21 0 11.594c0 3.637 1.83 6.881 4.604 9V25l4.298-2.333c1.135.314 2.36.484 3.604.484C19.399 23.15 25 17.976 25 11.593S19.423.991 12.53.991zm1.24 14.61l-3.179-3.39L4.39 15.6l6.823-7.243 3.256 3.39 6.125-3.39L13.77 15.6z" fill="#0382F9"/><path d="M20.456 8.484l-6.686 7.098-2.786-2.97-5.73 2.496-.865.474.153-.163-3.197 1.373a11.808 11.808 0 003.259 3.784v4.406l4.298-2.332a13.57 13.57 0 003.604.483C19.399 23.133 25 17.958 25 11.576c0-1.645-.435-3.178-1.103-4.594l-3.441 1.502z" fill="#0382F9"/></svg>