<svg width="25" height="25" fill="none" xmlns="http://www.w3.org/2000/svg"><path d="M12.5 0C5.596 0 0 5.596 0 12.5S5.596 25 12.5 25 25 19.404 25 12.5 19.404 0 12.5 0z" fill="#40B3E0"/><path d="M18.582 7.19L16.35 18.448s-.313.781-1.171.406l-5.152-3.95-1.874-.905L5 12.936s-.484-.172-.53-.546c-.047-.375.546-.578.546-.578l12.537-4.918s1.03-.453 1.03.297" fill="#fff"/><path d="M9.63 18.32s-.15-.014-.337-.607c-.187-.593-1.14-3.716-1.14-3.716l7.572-4.808s.437-.266.422 0c0 0 .078.047-.156.265-.235.219-5.949 5.355-5.949 5.355" fill="#D2E5F1"/><path d="M12.002 16.417l-2.038 1.858s-.16.121-.333.046l.39-3.452" fill="#B5CFE4"/></svg>