<svg width="18" height="19" fill="none" xmlns="http://www.w3.org/2000/svg"><path d="M5.96 9.588a7.21 7.21 0 003.287 3.373.65.65 0 00.658-.051l2.107-1.449a.66.66 0 01.639-.06l3.94 1.742c.134.058.246.16.319.29a.71.71 0 01.085.43 4.207 4.207 0 01-1.338 2.598A3.97 3.97 0 0112.99 17.5c-3.035 0-5.946-1.243-8.092-3.456-2.146-2.213-3.352-5.215-3.352-8.345 0-1.013.359-1.991 1.008-2.752a4.004 4.004 0 012.52-1.38.654.654 0 01.416.088c.126.076.225.19.282.329l1.69 4.067a.714.714 0 01-.055.654l-1.4 2.206a.702.702 0 00-.045.677v0z" stroke="#fff" stroke-width="1.5" stroke-linecap="round" stroke-linejoin="round"/></svg>