<svg width="25" height="25" fill="none" xmlns="http://www.w3.org/2000/svg"><path d="M0 25l2.535-7.243a11.97 11.97 0 01-1.487-5.781c0-3.2 1.246-6.206 3.508-8.468A11.898 11.898 0 0113.024 0c3.2 0 6.207 1.246 8.468 3.508A11.897 11.897 0 0125 11.976c0 3.199-1.246 6.206-3.508 8.468a11.897 11.897 0 01-8.468 3.508 11.97 11.97 0 01-5.781-1.487L0 25z" fill="#86F28B"/><path d="M10.303 14.696c2.864 2.864 6.114 4.257 7.259 3.111l1.382-1.382a.733.733 0 000-1.037l-1.728-1.728a.733.733 0 00-1.037 0l-1.037 1.037a10.173 10.173 0 01-4.838-4.84l1.036-1.036a.733.733 0 000-1.037L9.612 6.056a.733.733 0 00-1.037 0L7.193 7.438c-1.146 1.145.247 4.395 3.11 7.258z" fill="#fff"/><path d="M18.945 15.388l-1.728-1.729a.733.733 0 00-1.037 0l-1.037 1.037a10.17 10.17 0 01-2.839-2l-2 2c2.863 2.864 6.113 4.257 7.258 3.111l1.383-1.382a.733.733 0 000-1.037z" fill="#DCF4FF"/></svg>