<svg width="61" height="26" viewBox="0 0 61 26" fill="none" xmlns="http://www.w3.org/2000/svg">
<g style="mix-blend-mode:exclusion">
<path d="M16.6983 18.2793H9.35443V16.9184L13.2414 13.1533C14.1866 12.2561 14.6592 11.4799 14.6592 10.8246C14.6592 10.3206 14.4999 9.92243 14.1813 9.63009C13.8627 9.33776 13.4485 9.19159 12.9388 9.19159C12.0042 9.19159 11.3139 9.6301 10.8678 10.5071L9.32257 9.64522C9.66242 8.94965 10.1509 8.42042 10.7882 8.05752C11.4254 7.68454 12.1369 7.49805 12.9228 7.49805C13.9105 7.49805 14.7495 7.79038 15.4398 8.37506C16.1408 8.96982 16.4912 9.76618 16.4912 10.7642C16.4912 11.8327 15.8593 12.9819 14.5955 14.2117L12.0785 16.6008H16.6983V18.2793Z" fill="white"/>
<path d="M25.0384 9.17647L22.7763 12.0192C23.6046 12.2006 24.2631 12.5635 24.7516 13.1079C25.2508 13.6422 25.5003 14.2974 25.5003 15.0736C25.5003 16.1321 25.1233 16.9637 24.3693 17.5686C23.6259 18.1734 22.7019 18.4758 21.5974 18.4758C20.7266 18.4758 19.9566 18.2893 19.2875 17.9164C18.6184 17.5333 18.1405 16.9889 17.8538 16.2833L19.415 15.4214C19.7442 16.3287 20.4717 16.7823 21.5974 16.7823C22.2346 16.7823 22.7391 16.6311 23.1108 16.3287C23.4825 16.0162 23.6684 15.5978 23.6684 15.0736C23.6684 14.5494 23.4825 14.1361 23.1108 13.8337C22.7391 13.5313 22.2346 13.3801 21.5974 13.3801H21.1832L20.4504 12.3367L22.8559 9.32768H18.1883V7.69462H25.0384V9.17647Z" fill="white"/>
</g>
<path d="M38.829 8.14379H40.7951V8.78134H39.5107V11.5247H38.829V8.14379Z" fill="white"/>
<path d="M44.1674 11.0852C43.8183 11.4233 43.3935 11.5923 42.8929 11.5923C42.3923 11.5923 41.9674 11.4233 41.6183 11.0852C41.2725 10.7407 41.0996 10.3237 41.0996 9.83426C41.0996 9.34161 41.2725 8.92624 41.6183 8.58814C41.9674 8.24683 42.3923 8.07617 42.8929 8.07617C43.3935 8.07617 43.8183 8.24683 44.1674 8.58814C44.5165 8.92624 44.6911 9.34161 44.6911 9.83426C44.6911 10.3269 44.5165 10.7439 44.1674 11.0852ZM42.0975 10.6312C42.3083 10.8373 42.5734 10.9403 42.8929 10.9403C43.2123 10.9403 43.4775 10.8373 43.6882 10.6312C43.9023 10.4219 44.0093 10.1563 44.0093 9.83426C44.0093 9.51226 43.9023 9.24662 43.6882 9.03732C43.4742 8.82803 43.2091 8.72338 42.8929 8.72338C42.5767 8.72338 42.3116 8.82803 42.0975 9.03732C41.8835 9.24662 41.7764 9.51226 41.7764 9.83426C41.7764 10.1563 41.8835 10.4219 42.0975 10.6312Z" fill="white"/>
<path d="M47.97 8.14379V10.8872H48.3405V12.1719H47.6588V11.5247H45.747V12.1719H45.0652V10.8872H45.4012C45.5922 10.6296 45.6877 10.248 45.6877 9.74249V8.14379H47.97ZM46.1323 10.8872H47.2883V8.76685H46.3694V9.75215C46.3694 10.2448 46.2904 10.6231 46.1323 10.8872Z" fill="white"/>
<path d="M52.0751 11.5247H51.3341L51.1266 10.9162H49.7484L49.5409 11.5247H48.8048L50.0151 8.14379H50.8599L52.0751 11.5247ZM50.44 8.91175L49.9657 10.2931H50.9142L50.44 8.91175Z" fill="white"/>
<path d="M56.2049 9.4865V8.14379H56.8817V11.5247H56.2049V10.1241H54.9205V11.5247H54.2387V8.14379H54.9205V9.4865H56.2049Z" fill="white"/>
<path d="M60.7845 11.5247H60.0435L59.836 10.9162H58.4578L58.2503 11.5247H57.5142L58.7245 8.14379H59.5693L60.7845 11.5247ZM59.1494 8.91175L58.6751 10.2931H59.6236L59.1494 8.91175Z" fill="white"/>
<path d="M38.829 13.9397H40.1183C40.4477 13.9397 40.7276 14.0492 40.9582 14.2681C41.1854 14.4871 41.299 14.7559 41.299 15.0747C41.299 15.3935 41.1854 15.6623 40.9582 15.8813C40.7276 16.1003 40.4477 16.2097 40.1183 16.2097H39.5107V17.3206H38.829V13.9397ZM39.5107 15.5867H40.1183C40.2632 15.5867 40.3835 15.5384 40.479 15.4418C40.5745 15.342 40.6222 15.2196 40.6222 15.0747C40.6222 14.9266 40.5745 14.8042 40.479 14.7076C40.3835 14.611 40.2632 14.5627 40.1183 14.5627H39.5107V15.5867Z" fill="white"/>
<path d="M43.3286 17.3206H42.0393V13.9397H42.721V15.0506H43.3286C43.658 15.0506 43.9379 15.16 44.1684 15.379C44.3957 15.5979 44.5093 15.8668 44.5093 16.1856C44.5093 16.5044 44.3957 16.7732 44.1684 16.9922C43.9379 17.2111 43.658 17.3206 43.3286 17.3206ZM45.5023 17.3206H44.8255V13.9397H45.5023V17.3206ZM42.721 15.6736V16.6976H43.3286C43.4735 16.6976 43.5937 16.6493 43.6892 16.5527C43.7848 16.4561 43.8325 16.3337 43.8325 16.1856C43.8325 16.0375 43.7848 15.9151 43.6892 15.8185C43.5937 15.7219 43.4735 15.6736 43.3286 15.6736H42.721Z" fill="white"/>
<path d="M48.4073 15.2824V13.9397H49.0841V17.3206H48.4073V15.9199H47.1229V17.3206H46.4411V13.9397H47.1229V15.2824H48.4073Z" fill="white"/>
<path d="M51.3962 15.5818L52.7251 17.3206H51.9396L50.7046 15.7364V17.3206H50.0229V13.9397H50.7046V15.4321L51.8902 13.9397H52.6757L51.3962 15.5818Z" fill="white"/>
<path d="M54.0403 15.9248V16.6831H55.4976V17.3206H53.3586V13.9397H55.4729V14.5772H54.0403V15.2969H55.3494V15.9248H54.0403Z" fill="white"/>
<path d="M8.63898 22.1936C8.82021 21.6797 8.80131 20.6864 8.57449 20.0615C8.53224 20.049 8.48999 20.0366 8.44774 20.0242C8.10418 20.2745 7.90183 20.571 7.74061 20.8852C7.20137 22.0099 7.73839 22.3232 7.74728 23.2109C6.86449 22.2798 6.11066 21.2918 5.48581 20.2638C5.58142 19.0886 6.2741 19.567 6.70438 17.9719C6.78332 17.6479 6.84558 17.3177 6.80556 16.9315C6.76776 16.912 6.72995 16.8925 6.69326 16.8738C6.30078 17.0398 6.03172 17.2724 5.7949 17.5289C4.9688 18.477 5.44245 18.8045 5.15448 19.6922C4.58633 18.6651 4.14493 17.6008 3.83139 16.5161C4.0949 15.6524 4.35618 15.8139 5.01105 15.2902C5.39575 14.9751 5.85383 14.2064 5.93832 13.5752C5.90608 13.5504 5.87495 13.5246 5.84382 13.4989C5.43355 13.577 5.12112 13.7421 4.83649 13.9338C3.67462 14.7549 4.37619 14.9094 3.65795 15.8565C3.40111 14.7825 3.26769 13.6915 3.2588 12.5979C3.92701 11.3507 4.34061 12.2002 5.47024 10.9592C5.67815 10.7178 5.87161 10.4648 6.0017 10.1204C5.97835 10.0893 5.95389 10.0591 5.93054 10.0281C5.52695 10.021 5.19784 10.1177 4.88653 10.242C3.56344 10.8137 4.23054 11.1377 3.27103 11.8647C3.31772 10.7968 3.48228 9.7298 3.76802 8.67702C4.54186 7.73609 4.40399 8.13732 5.51583 7.84793C6.07842 7.69703 6.73885 7.13424 7.02125 6.69928C7.00902 6.66555 6.99457 6.63093 6.98012 6.59631C6.35638 6.45162 5.52806 6.62738 5.09333 6.96914C4.59634 7.36948 4.66861 7.60649 4.0104 7.879C4.35729 6.83332 4.82649 5.80628 5.41687 4.81031C5.42799 4.82185 5.44022 4.83339 5.45134 4.84582C6.88005 3.67764 6.72773 4.75883 8.21314 4.03182C8.48999 3.88802 8.76239 3.72557 9.03146 3.45306C9.02812 3.41577 9.02367 3.37849 9.02034 3.34121C8.49778 3.08467 7.69725 3.09976 7.20804 3.35275C6.67992 3.63503 6.58764 3.9395 5.93277 4.0478C5.93721 4.02472 5.93832 4.00253 5.94388 3.97945C6.90118 2.56183 8.11753 1.22055 9.59516 0C8.19536 1.0803 7.00347 2.27156 6.02171 3.54182C6.08842 2.69143 6.07953 1.89696 5.31347 1.22854C5.26344 1.24363 5.21341 1.25784 5.16337 1.27293C4.38953 2.35855 4.26167 3.59775 5.24454 4.631C4.68195 5.48494 4.20942 6.36996 3.82695 7.2745C3.64349 6.42943 3.24768 5.5888 2.40379 5.0704C2.35932 5.09259 2.31485 5.11567 2.27037 5.13875C1.85566 6.38061 2.1414 7.71034 3.35108 8.55275C3.062 9.45019 2.85742 10.3636 2.74068 11.2841C2.27816 10.4799 1.64997 9.69785 0.651537 9.28064C0.614846 9.30994 0.578156 9.34012 0.540353 9.36941C0.513669 10.708 1.2119 11.9907 2.6295 12.6707C2.59948 13.5797 2.65396 14.4904 2.79294 15.3976C2.08914 14.6786 1.20634 13.9835 0.0844997 13.6959C0.0567037 13.7314 0.0277959 13.767 0 13.8025C0.383584 15.1473 1.43649 16.3172 3.0809 16.8206C3.30549 17.7056 3.61236 18.5817 4.0015 19.4401C2.60615 18.5515 1.56324 18.2364 0.732701 18.1476C0.714912 18.1876 0.697122 18.2275 0.680445 18.2675C1.47874 19.551 2.85631 20.5541 4.71753 20.8337C5.19228 21.6602 5.74709 22.4653 6.38417 23.2429C4.65082 22.5816 3.47894 22.4315 2.62616 22.4617C2.6206 22.5043 2.61504 22.5478 2.60948 22.5904C3.82583 23.7542 5.51471 24.5265 7.54827 24.5398C8.04303 25.0422 8.57449 25.5295 9.14487 26C9.44506 25.7603 9.74526 25.5207 10.0455 25.281C9.39169 24.7768 8.78352 24.2468 8.22315 23.6965C8.09307 22.9233 8.39104 22.8709 8.63898 22.1936Z" fill="#D34141"/>
<path d="M31.2186 19.4416C31.6318 18.5832 31.9554 17.7071 32.1932 16.822C33.7468 16.3728 35.0026 15.2996 35.4546 13.8038C35.4252 13.7683 35.3957 13.7328 35.3651 13.6973C34.1764 13.9849 33.2431 14.6818 32.498 15.399C32.6451 14.4927 32.7028 13.581 32.671 12.672C34.174 11.9902 34.9108 10.7066 34.8826 9.37062C34.8437 9.34132 34.8049 9.31114 34.7649 9.28185C33.715 9.69641 33.0488 10.4731 32.5533 11.2854C32.4298 10.3648 32.2132 9.4514 31.9072 8.55393C32.9723 7.86773 33.5655 6.59299 33.0512 5.13893C33.0041 5.11585 32.957 5.09365 32.91 5.07057C32.0119 5.59166 31.5953 6.43675 31.4034 7.27475C30.9986 6.36929 30.4983 5.48513 29.9028 4.63027C30.9421 3.59254 30.8126 2.36485 29.9875 1.27208C29.9346 1.25699 29.8816 1.24279 29.8286 1.2277C29.0189 1.89614 29.0083 2.69063 29.0789 3.54194C28.0396 2.27164 26.7779 1.08034 25.2961 0C26.8603 1.22059 28.1479 2.56192 29.1613 3.97958C29.1672 4.00266 29.1683 4.02397 29.1731 4.04794C28.4798 3.93875 28.3821 3.63427 27.8219 3.35286C27.304 3.09987 26.4566 3.08478 25.9034 3.34132C25.8999 3.37861 25.8952 3.41589 25.8916 3.45317C26.2742 3.82068 27.0651 4.26542 27.6642 4.3036C28.7317 4.3613 28.5728 3.98935 29.6815 4.84598C29.6933 4.83444 29.7051 4.82202 29.718 4.81047C30.343 5.80559 30.8397 6.83356 31.2069 7.87927C30.0334 7.41944 30.6313 6.90368 29.1342 6.60009C28.8 6.54061 28.4551 6.51043 28.0632 6.59565C28.0479 6.63027 28.0326 6.66489 28.0173 6.69951C28.2315 7.01198 28.4845 7.22059 28.747 7.41323C30.2229 8.43853 30.3406 7.40435 31.4623 8.67821C31.7648 9.73103 31.9401 10.798 31.9884 11.866C30.842 11.0448 31.7224 10.8318 30.2782 10.2432C29.9487 10.119 29.6015 10.0213 29.1742 10.0293C29.1495 10.0604 29.1236 10.0905 29.0989 10.1216C29.3367 10.7199 29.9781 11.3493 30.4336 11.5633C31.3069 11.9654 31.4988 11.7115 32.0025 12.5992C31.9931 13.6929 31.8519 14.7847 31.58 15.858C30.8667 14.9703 31.5458 14.7448 30.3324 13.9352C30.0311 13.7426 29.7003 13.5783 29.266 13.5002C29.2331 13.526 29.199 13.5517 29.166 13.5766C29.2178 13.9467 29.3626 14.2406 29.5226 14.5273C30.3865 15.9716 30.9986 15.2845 31.3964 16.5175C31.0645 17.6023 30.5972 18.6667 29.9958 19.6937C29.7368 18.9383 29.9852 19.1025 29.8404 18.4163C29.7121 17.8411 29.0871 17.1629 28.3668 16.8753C28.3268 16.8948 28.2868 16.9143 28.2468 16.933C28.0208 19.0209 29.5356 19.0022 29.6438 20.2654C28.9824 21.2934 28.1844 22.2814 27.2499 23.2126C27.2593 22.3249 27.8278 22.0124 27.2569 20.8868C27.0863 20.5726 26.8721 20.2761 26.5084 20.0257C26.4637 20.0382 26.4189 20.0506 26.3742 20.063C26.1341 20.6871 26.1141 21.6804 26.3059 22.1953C26.5696 22.8753 26.8838 22.925 26.7473 23.6964C26.1529 24.2477 25.5103 24.7767 24.8182 25.281C25.136 25.5206 25.4538 25.7603 25.7716 26C26.3742 25.5295 26.938 25.0422 27.4606 24.5397C28.3868 24.5344 29.1566 24.4101 29.8616 24.1944C30.8326 23.8615 31.806 23.3893 32.6887 22.593C32.6828 22.5504 32.6769 22.5069 32.671 22.4643C31.7683 22.435 30.5278 22.5841 28.6929 23.2455C29.3673 22.4678 29.9546 21.6627 30.4571 20.8362C32.438 20.5557 33.8916 19.5455 34.7308 18.2699C34.7119 18.2299 34.6943 18.19 34.6754 18.15C33.7998 18.2379 32.6958 18.5522 31.2186 19.4416Z" fill="#D34141"/>
</svg>
