<svg width="103" height="44" viewBox="0 0 103 44" fill="none" xmlns="http://www.w3.org/2000/svg">
<g style="mix-blend-mode:exclusion">
<path d="M28.2591 30.9341H15.831V28.6311L22.409 22.2593C24.0085 20.741 24.8083 19.4275 24.8083 18.3186C24.8083 17.4656 24.5387 16.7918 23.9996 16.297C23.4604 15.8023 22.7594 15.555 21.8967 15.555C20.3151 15.555 19.1469 16.297 18.3921 17.7812L15.777 16.3226C16.3522 15.1455 17.1789 14.2499 18.2573 13.6358C19.3356 13.0046 20.5398 12.689 21.8698 12.689C23.5413 12.689 24.9611 13.1837 26.1293 14.1731C27.3155 15.1797 27.9086 16.5274 27.9086 18.2162C27.9086 20.0245 26.8392 21.9693 24.7005 24.0506L20.441 28.0937H28.2591V30.9341Z" fill="white"/>
<path d="M42.373 15.5294L38.5448 20.3401C39.9467 20.6472 41.061 21.2614 41.8877 22.1826C42.7325 23.0867 43.1548 24.1956 43.1548 25.5092C43.1548 27.3004 42.5168 28.7078 41.2407 29.7314C39.9826 30.755 38.419 31.2667 36.5498 31.2667C35.0761 31.2667 33.7731 30.9511 32.6408 30.3199C31.5085 29.6717 30.6997 28.7505 30.2145 27.5563L32.8565 26.0977C33.4136 27.6331 34.6447 28.4008 36.5498 28.4008C37.6282 28.4008 38.4819 28.1449 39.111 27.6331C39.74 27.1042 40.0545 26.3963 40.0545 25.5092C40.0545 24.6221 39.74 23.9226 39.111 23.4109C38.4819 22.8991 37.6282 22.6432 36.5498 22.6432H35.8489L34.6088 20.8775L38.6796 15.7853H30.7806V13.0216H42.373V15.5294Z" fill="white"/>
</g>
<path d="M65.7104 13.7812H69.0378V14.8601H66.8641V19.5028H65.7104V13.7812Z" fill="white"/>
<path d="M74.7447 18.759C74.154 19.3311 73.435 19.6172 72.5878 19.6172C71.7407 19.6172 71.0217 19.3311 70.4309 18.759C69.8457 18.1759 69.5531 17.4702 69.5531 16.642C69.5531 15.8083 69.8457 15.1053 70.4309 14.5332C71.0217 13.9556 71.7407 13.6667 72.5878 13.6667C73.435 13.6667 74.154 13.9556 74.7447 14.5332C75.3355 15.1053 75.6309 15.8083 75.6309 16.642C75.6309 17.4757 75.3355 18.1813 74.7447 18.759ZM71.2419 17.9906C71.5986 18.3394 72.0472 18.5137 72.5878 18.5137C73.1285 18.5137 73.5771 18.3394 73.9338 17.9906C74.2961 17.6364 74.4772 17.1869 74.4772 16.642C74.4772 16.0971 74.2961 15.6475 73.9338 15.2933C73.5715 14.9391 73.1229 14.762 72.5878 14.762C72.0528 14.762 71.6041 14.9391 71.2419 15.2933C70.8796 15.6475 70.6984 16.0971 70.6984 16.642C70.6984 17.1869 70.8796 17.6364 71.2419 17.9906Z" fill="white"/>
<path d="M81.1799 13.7812V18.4238H81.8069V20.598H80.6532V19.5028H77.4178V20.598H76.2641V18.4238H76.8326C77.1559 17.9879 77.3175 17.3422 77.3175 16.4867V13.7812H81.1799ZM78.0699 18.4238H80.0262V14.8356H78.4712V16.503C78.4712 17.3367 78.3374 17.977 78.0699 18.4238Z" fill="white"/>
<path d="M88.127 19.5028H86.873L86.5219 18.4729H84.1894L83.8383 19.5028H82.5926L84.6409 13.7812H86.0704L88.127 19.5028ZM85.3598 15.0808L84.5573 17.4185H86.1624L85.3598 15.0808Z" fill="white"/>
<path d="M95.1158 16.0535V13.7812H96.2612V19.5028H95.1158V17.1324H92.9422V19.5028H91.7885V13.7812H92.9422V16.0535H95.1158Z" fill="white"/>
<path d="M102.866 19.5028H101.612L101.261 18.4729H98.9284L98.5773 19.5028H97.3316L99.3798 13.7812H100.809L102.866 19.5028ZM100.099 15.0808L99.2962 17.4185H100.901L100.099 15.0808Z" fill="white"/>
<path d="M65.7104 23.5896H67.8924C68.4498 23.5896 68.9235 23.7749 69.3137 24.1454C69.6982 24.516 69.8905 24.971 69.8905 25.5104C69.8905 26.0499 69.6982 26.5049 69.3137 26.8754C68.9235 27.246 68.4498 27.4312 67.8924 27.4312H66.8641V29.3112H65.7104V23.5896ZM66.8641 26.3768H67.8924C68.1377 26.3768 68.3411 26.2951 68.5027 26.1316C68.6644 25.9627 68.7452 25.7556 68.7452 25.5104C68.7452 25.2598 68.6644 25.0527 68.5027 24.8892C68.3411 24.7258 68.1377 24.644 67.8924 24.644H66.8641V26.3768Z" fill="white"/>
<path d="M73.3252 29.3112H71.1432V23.5896H72.2969V25.4696H73.3252C73.8826 25.4696 74.3563 25.6548 74.7464 26.0254C75.131 26.3959 75.3233 26.8509 75.3233 27.3904C75.3233 27.9298 75.131 28.3848 74.7464 28.7554C74.3563 29.1259 73.8826 29.3112 73.3252 29.3112ZM77.0037 29.3112H75.8583V23.5896H77.0037V29.3112ZM72.2969 26.524V28.2568H73.3252C73.5705 28.2568 73.7739 28.175 73.9355 28.0116C74.0971 27.8481 74.178 27.641 74.178 27.3904C74.178 27.1397 74.0971 26.9326 73.9355 26.7692C73.7739 26.6057 73.5705 26.524 73.3252 26.524H72.2969Z" fill="white"/>
<path d="M81.9199 25.8619V23.5896H83.0652V29.3112H81.9199V26.9408H79.7463V29.3112H78.5926V23.5896H79.7463V25.8619H81.9199Z" fill="white"/>
<path d="M86.9781 26.3687L89.227 29.3112H87.8977L85.8077 26.6302V29.3112H84.654V23.5896H85.8077V26.1153L87.8141 23.5896H89.1434L86.9781 26.3687Z" fill="white"/>
<path d="M91.4527 26.949V28.2323H93.919V29.3112H90.299V23.5896H93.8772V24.6685H91.4527V25.8864H93.6682V26.949H91.4527Z" fill="white"/>
<path d="M14.6198 37.5585C14.9265 36.6887 14.8945 35.0077 14.5107 33.9502C14.4392 33.9291 14.3677 33.9081 14.2962 33.8871C13.7148 34.3107 13.3723 34.8124 13.0995 35.3442C12.1869 37.2475 13.0957 37.7778 13.1108 39.28C11.6168 37.7042 10.3411 36.0322 9.28367 34.2927C9.44549 32.3037 10.6177 33.1134 11.3459 30.4139C11.4795 29.8656 11.5848 29.3068 11.5171 28.6533C11.4531 28.6203 11.3892 28.5872 11.3271 28.5557C10.6629 28.8366 10.2075 29.2302 9.80675 29.6643C8.40874 31.2687 9.21029 31.823 8.72297 33.3252C7.76148 31.5872 7.0145 29.786 6.4839 27.9503C6.92983 26.4886 7.372 26.762 8.48024 25.8757C9.13127 25.3424 9.90648 24.0415 10.0495 22.9734C9.99491 22.9314 9.94222 22.8878 9.88954 22.8442C9.19524 22.9764 8.66652 23.2559 8.18484 23.5803C6.21859 24.9699 7.40587 25.2313 6.19037 26.8341C5.75573 25.0165 5.52994 23.1702 5.51489 21.3195C6.64571 19.2089 7.34566 20.6465 9.25733 18.5464C9.60919 18.1378 9.93658 17.7097 10.1567 17.1268C10.1172 17.0742 10.0758 17.0231 10.0363 16.9706C9.35329 16.9586 8.79635 17.1223 8.26951 17.3326C6.03044 18.3 7.15938 18.8483 5.53558 20.0787C5.61461 18.2715 5.89308 16.4658 6.37665 14.6842C7.68622 13.0918 7.45291 13.7708 9.33448 13.2811C10.2866 13.0257 11.4042 12.0733 11.8821 11.3372C11.8614 11.2802 11.837 11.2216 11.8125 11.163C10.7569 10.9181 9.35517 11.2156 8.61948 11.7939C7.77842 12.4714 7.90072 12.8725 6.78683 13.3337C7.37388 11.5641 8.1679 9.82602 9.16702 8.14053C9.18583 8.16005 9.20653 8.17958 9.22535 8.20061C11.6432 6.22369 11.3854 8.0534 13.8992 6.82308C14.3677 6.57972 14.8287 6.30481 15.284 5.84363C15.2784 5.78054 15.2708 5.71745 15.2652 5.65435C14.3809 5.22021 13.0261 5.24575 12.1982 5.67388C11.3045 6.15159 11.1483 6.66685 10.0401 6.85012C10.0476 6.81106 10.0495 6.77351 10.0589 6.73445C11.6789 4.3354 13.7374 2.06555 16.238 0C13.8691 1.8282 11.852 3.84418 10.1906 5.99385C10.3035 4.55473 10.2884 3.21024 8.99203 2.07907C8.90736 2.10461 8.82269 2.12864 8.73802 2.15418C7.42844 3.9914 7.21206 6.08849 8.87537 7.83708C7.9233 9.28221 7.12363 10.7799 6.47637 12.3107C6.16591 10.8806 5.49607 9.45797 4.06796 8.58068C3.99269 8.61823 3.91743 8.65729 3.84217 8.69635C3.14034 10.798 3.62391 13.0483 5.67106 14.4739C5.18185 15.9926 4.83564 17.5384 4.63807 19.0962C3.85534 17.7352 2.79225 16.4117 1.1026 15.7057C1.04051 15.7553 0.978417 15.8063 0.914444 15.8559C0.869286 18.1213 2.05091 20.292 4.44992 21.4427C4.39911 22.9809 4.49131 24.5222 4.72651 26.0575C3.53547 24.8407 2.04151 23.6645 0.142999 23.1777C0.0959601 23.2378 0.0470393 23.2979 0 23.358C0.649142 25.6339 2.43099 27.6138 5.21383 28.4656C5.59391 29.9633 6.11323 31.446 6.77178 32.8986C4.4104 31.3949 2.64549 30.8616 1.23996 30.7114C1.20985 30.779 1.17975 30.8466 1.15152 30.9142C2.50249 33.0864 4.83376 34.7839 7.98351 35.2571C8.78694 36.6557 9.72584 38.0182 10.804 39.3341C7.87061 38.215 5.88744 37.9611 4.44427 38.0122C4.43486 38.0843 4.42546 38.1579 4.41605 38.23C6.47449 40.1994 9.3326 41.5063 12.774 41.5289C13.6113 42.3791 14.5107 43.2038 15.4759 44C15.984 43.5944 16.492 43.1888 17 42.7832C15.8936 41.9299 14.8644 41.0331 13.9161 40.1017C13.696 38.7933 14.2002 38.7047 14.6198 37.5585Z" fill="#D34141"/>
<path d="M52.8315 32.9012C53.5306 31.4485 54.0783 29.9658 54.4807 28.468C57.1099 27.7079 59.2351 25.8916 60 23.3603C59.9502 23.3002 59.9004 23.2401 59.8486 23.18C57.8369 23.6668 56.2574 24.8461 54.9966 26.0599C55.2455 24.5261 55.3431 22.9832 55.2894 21.4449C57.8329 20.2912 59.0798 18.1189 59.032 15.858C58.9662 15.8084 58.9005 15.7573 58.8328 15.7077C57.0561 16.4093 55.9287 17.7238 55.0902 19.0984C54.881 17.5405 54.5145 15.9947 53.9967 14.4759C55.7993 13.3146 56.8031 11.1574 55.9327 8.69664C55.853 8.65758 55.7734 8.62003 55.6937 8.58097C54.174 9.4628 53.4688 10.893 53.1442 12.3111C52.459 10.7788 51.6125 9.28253 50.6046 7.83584C52.3634 6.07969 52.1443 4.00205 50.748 2.15275C50.6584 2.12722 50.5688 2.10318 50.4791 2.07764C49.1088 3.20885 49.0908 4.55338 49.2104 5.99406C47.4516 3.84431 45.3164 1.82826 42.8087 0C45.4558 2.06562 47.6348 4.33555 49.3498 6.73468C49.3597 6.77374 49.3617 6.80979 49.3697 6.85035C48.1965 6.66558 48.0312 6.1503 47.0831 5.67408C46.2067 5.24593 44.7726 5.22039 43.8364 5.65455C43.8305 5.71764 43.8225 5.78074 43.8165 5.84383C44.4639 6.46577 45.8024 7.21841 46.8162 7.28301C48.6228 7.38065 48.3539 6.7512 50.2302 8.20089C50.2501 8.18137 50.27 8.16033 50.2919 8.1408C51.3496 9.82485 52.1901 11.5645 52.8116 13.3342C50.8257 12.556 51.8376 11.6832 49.304 11.1694C48.7383 11.0687 48.1547 11.0177 47.4914 11.1619C47.4655 11.2205 47.4396 11.279 47.4137 11.3376C47.7763 11.8664 48.2045 12.2195 48.6487 12.5455C51.1464 14.2806 51.3456 12.5304 53.2438 14.6862C53.7557 16.4679 54.0524 18.2736 54.1341 20.0809C52.1941 18.6913 53.684 18.3307 51.24 17.3347C50.6823 17.1244 50.0947 16.9591 49.3717 16.9727C49.3299 17.0252 49.286 17.0763 49.2442 17.1289C49.6466 18.1414 50.7321 19.2065 51.5029 19.5686C52.9809 20.2491 53.3055 19.8195 54.158 21.3217C54.1421 23.1725 53.9031 25.0203 53.443 26.8366C52.2359 25.3343 53.3852 24.9527 51.3316 23.5826C50.8217 23.2566 50.262 22.9787 49.5271 22.8465C49.4713 22.8901 49.4135 22.9337 49.3577 22.9757C49.4454 23.6022 49.6904 24.0994 49.9613 24.5847C51.4233 27.0289 52.459 25.8661 53.1322 27.9527C52.5705 29.7885 51.7798 31.5897 50.762 33.3279C50.3238 32.0494 50.744 32.3274 50.4991 31.1661C50.2819 30.1926 49.2243 29.0449 48.0053 28.5582C47.9376 28.5912 47.8699 28.6243 47.8021 28.6558C47.4197 32.1892 49.9832 32.1576 50.1664 34.2953C49.047 36.035 47.6966 37.707 46.1151 39.2829C46.131 37.7806 47.0931 37.2518 46.127 35.3469C45.8382 34.8151 45.4757 34.3134 44.8602 33.8897C44.7846 33.9108 44.7089 33.9318 44.6332 33.9528C44.2268 35.0089 44.193 36.69 44.5176 37.5613C44.9638 38.712 45.4956 38.7961 45.2646 40.1016C44.2587 41.0345 43.1712 41.9299 42 42.7832C42.5378 43.1888 43.0756 43.5944 43.6134 44C44.6332 43.2038 45.5873 42.3791 46.4716 41.5288C48.0392 41.5198 49.3418 41.3094 50.5349 40.9444C52.1782 40.381 53.8254 39.5818 55.3192 38.2343C55.3093 38.1622 55.2993 38.0886 55.2894 38.0165C53.7616 37.9669 51.6623 38.2193 48.557 39.3385C49.6984 38.0225 50.6923 36.6599 51.5428 35.2613C54.895 34.7866 57.3549 33.077 58.775 30.9182C58.7432 30.8506 58.7133 30.783 58.6814 30.7154C57.1995 30.8642 55.3312 31.396 52.8315 32.9012Z" fill="#D34141"/>
</svg>
