<svg width="37" height="48" viewBox="0 0 37 48" fill="none" xmlns="http://www.w3.org/2000/svg">
<path d="M13.0859 14.269V26.6539L23.0408 32.3829V20.1823L13.0859 14.269Z" fill="#98815B"/>
<path opacity="0.15" d="M13.0859 18.1504C15.4386 19.4582 19.1525 21.5464 20.8583 22.5435C21.4672 22.8993 22.1647 23.2705 22.9114 23.6671C22.955 23.6896 22.9986 23.7135 23.0422 23.736V20.1838L13.0873 14.2705V18.1504H13.0859Z" fill="#333333"/>
<path d="M8.36941 46.3964C8.36941 46.3964 21.5305 46.8112 25.8913 46.3964C29.8555 46.0181 35.9038 42.6346 35.9038 34.0087C35.9038 25.0874 26.3089 21.389 22.1366 18.9491C17.9642 16.5093 12.8624 13.791 12.8624 13.791V15.9735C15.1714 17.2532 19.3353 19.5918 21.1424 20.6479C21.7442 20.9995 22.4389 21.3693 23.1758 21.7602C27.7166 24.1748 33.935 27.4809 33.935 34.0073C33.935 37.3274 32.9492 39.9796 31.0044 41.8893C30.7935 42.096 30.5713 42.2943 30.3378 42.4799C30.8708 41.421 31.197 40.237 31.197 39.0135C31.197 37.1109 29.9075 35.1759 27.3636 33.2606C25.8617 32.1299 24.3725 31.341 24.0716 31.1863L12.8624 25.0959V27.0126L13.1282 27.1659C13.1282 29.3807 13.1282 34.2801 13.1282 36.9928C13.1282 40.5731 13.2772 45.4556 9.04581 45.4556C7.53972 45.457 7.89269 46.3964 8.36941 46.3964ZM17.6085 29.7435L18.5436 30.2821V42.7513C18.5436 43.0101 18.3341 43.2196 18.0753 43.2196C17.8166 43.2196 17.6071 43.0101 17.6071 42.7513V29.7435H17.6085ZM19.3578 30.749L20.293 31.2876V42.7513C20.293 43.0101 20.0835 43.2196 19.8247 43.2196C19.566 43.2196 19.3564 43.0101 19.3564 42.7513V30.749H19.3578ZM21.1072 31.7545L22.0424 32.2931V42.7513C22.0424 43.0101 21.8328 43.2196 21.5741 43.2196C21.3153 43.2196 21.1058 43.0101 21.1058 42.7513V31.7545H21.1072ZM15.883 28.7507L16.873 29.3202V42.7499C16.873 43.0087 16.6635 43.2182 16.4047 43.2182H16.3499C16.0911 43.2182 15.8816 43.0087 15.8816 42.7499V28.7507H15.883ZM29.2283 39.0163C29.2283 42.0328 26.4046 44.7932 24.6721 44.7932C23.7496 44.7932 23.0422 43.3603 23.0422 41.2256C23.0422 38.0348 23.0422 34.7273 23.0422 32.8682L23.1322 32.9202C23.1308 32.9188 29.2283 35.9999 29.2283 39.0163ZM15.021 28.2557V42.7513C15.021 43.0101 14.8114 43.2196 14.5527 43.2196H14.4978C14.2391 43.2196 14.0296 43.0101 14.0296 42.7513V27.8212C14.0296 27.7776 14.038 27.7368 14.0478 27.696L15.021 28.2557Z" fill="#98815B"/>
<path opacity="0.09" d="M14.0308 29.8615V27.821C14.0308 27.7774 14.0393 27.7366 14.0491 27.6959L15.0208 28.2541V30.4324C15.3077 30.5969 15.5946 30.7601 15.8829 30.9232V28.7491L16.8729 29.3187V31.4843C17.1204 31.6235 17.3651 31.7599 17.6083 31.8949V29.7419L18.5435 30.2805V32.4152C18.8219 32.5699 19.0933 32.719 19.3577 32.8638V30.7474L20.2929 31.286V33.3771C20.5812 33.5346 20.854 33.6837 21.1071 33.8201V31.7529L22.0423 32.2915V34.3263C22.6315 34.6441 23.0407 34.8621 23.0407 34.8621C23.0407 34.6526 23.0407 33.048 23.0407 32.8652L23.0632 30.7123L12.8608 25.0957V27.0124L13.1266 27.1657C13.1266 27.3949 13.1266 29.0613 13.1266 29.344C13.3319 29.4579 13.9226 29.7996 14.0308 29.8615Z" fill="black"/>
<path d="M27.7585 0.335986C27.7585 0.335986 14.5974 -0.0788575 10.2366 0.335986C6.27241 0.714268 0.224121 4.09771 0.224121 12.7236C0.224121 21.6449 9.81897 25.3433 13.9913 27.7832C18.1637 30.223 23.2655 32.9413 23.2655 32.9413V30.7588C20.9565 29.4791 16.7926 27.1405 14.9855 26.0844C14.3837 25.7329 13.689 25.363 12.9521 24.9721C8.41131 22.5576 2.19287 19.2515 2.19287 12.7251C2.19287 9.40489 3.17865 6.75271 5.1235 4.84302C5.33444 4.6363 5.55662 4.43802 5.79006 4.25239C5.25709 5.3113 4.93084 6.49536 4.93084 7.7188C4.93084 9.62146 6.22037 11.5565 8.76428 13.4718C10.2662 14.6024 11.7554 15.3913 12.0563 15.546L23.2655 21.6365V19.7197L22.9998 19.5665C22.9998 17.3516 22.9998 12.4522 22.9998 9.73958C22.9998 6.15927 22.8507 1.27677 27.0821 1.27677C28.5868 1.27677 28.2352 0.335986 27.7585 0.335986ZM18.5194 16.9902L17.5843 16.4516V3.98239C17.5843 3.72364 17.7938 3.51411 18.0526 3.51411C18.3113 3.51411 18.5208 3.72364 18.5208 3.98239V16.9902H18.5194ZM16.7701 15.9847L15.8349 15.4461V3.98239C15.8349 3.72364 16.0444 3.51411 16.3032 3.51411C16.5619 3.51411 16.7715 3.72364 16.7715 3.98239V15.9847H16.7701ZM15.0207 14.9779L14.0855 14.4393V3.98099C14.0855 3.72224 14.2951 3.5127 14.5538 3.5127C14.8126 3.5127 15.0221 3.72224 15.0221 3.98099V14.9779H15.0207ZM20.2449 17.983L19.2549 17.4135V3.9838C19.2549 3.72505 19.4644 3.51552 19.7232 3.51552H19.778C20.0368 3.51552 20.2463 3.72505 20.2463 3.9838V17.983H20.2449ZM6.89959 7.71739C6.89959 4.70099 9.72334 1.94052 11.4558 1.94052C12.3783 1.94052 13.0857 3.37349 13.0857 5.50817C13.0857 8.69896 13.0857 12.0065 13.0857 13.8655L12.9957 13.8135C12.9971 13.8149 6.89959 10.7338 6.89959 7.71739ZM21.1069 18.478V3.98239C21.1069 3.72364 21.3165 3.51411 21.5752 3.51411H21.6301C21.8888 3.51411 22.0983 3.72364 22.0983 3.98239V18.9126C22.0983 18.9561 22.0899 18.9969 22.0801 19.0377L21.1069 18.478Z" fill="#98815B"/>
</svg>
