<svg width="25" height="25" viewBox="0 0 25 25" fill="none" xmlns="http://www.w3.org/2000/svg">
<ellipse cx="12" cy="12.5" rx="10" ry="7.5" fill="white"/>
<path d="M12.5293 0.990723C5.636 0.990723 0 5.2097 0 11.593C0 15.2299 1.83032 18.4745 4.60414 20.5933V24.9997L8.90236 22.6673C10.0365 22.9815 11.2617 23.1507 12.5059 23.1507C19.3993 23.1507 25 17.976 25 11.593C25 5.21009 19.4226 0.990723 12.5293 0.990723ZM13.7704 15.5996L10.5912 12.2092L4.38897 15.5996L11.2118 8.35679L14.4678 11.7472L20.5928 8.35679L13.7704 15.5996Z" fill="#0382F9"/>
<path d="M20.4558 8.48424L13.7701 15.582L10.9844 12.6117L5.25452 15.1085L4.38869 15.582L4.54205 15.4192L1.34503 16.7918C2.14943 18.2604 3.24786 19.5577 4.60386 20.5757V24.9821L8.90208 22.6497C10.0362 22.964 11.2614 23.1332 12.5057 23.1332C19.399 23.1332 24.9997 17.9584 24.9997 11.5755C24.9997 9.93138 24.5654 8.39826 23.8973 6.98242L20.4558 8.48424Z" fill="#0382F9"/>
</svg>
