<svg width="18" height="19" viewBox="0 0 18 19" fill="none" xmlns="http://www.w3.org/2000/svg">
<path d="M5.96082 9.58797C6.65904 11.06 7.81614 12.2479 9.24677 12.9612C9.35144 13.0124 9.46722 13.0345 9.58272 13.0255C9.69822 13.0165 9.80945 12.9766 9.90547 12.9098L12.012 11.4613C12.1051 11.3972 12.2123 11.3581 12.3238 11.3475C12.4353 11.337 12.5476 11.3553 12.6506 11.4008L16.5914 13.1425C16.7253 13.2011 16.8371 13.303 16.9099 13.4329C16.9827 13.5627 17.0126 13.7135 16.9952 13.8624C16.8706 14.8675 16.395 15.7914 15.6575 16.461C14.92 17.1305 13.9711 17.4999 12.9885 17.5C9.95362 17.5 7.04304 16.2567 4.89706 14.0437C2.75107 11.8306 1.54547 8.8291 1.54547 5.69938C1.54552 4.68606 1.90373 3.70751 2.55303 2.94695C3.20233 2.18639 4.09819 1.69596 5.07287 1.56751C5.21726 1.54949 5.36343 1.58035 5.48934 1.65545C5.61525 1.73054 5.71408 1.8458 5.77095 1.98385L7.46136 6.05141C7.50509 6.15662 7.5229 6.27135 7.51323 6.38538C7.50355 6.49941 7.46667 6.6092 7.40589 6.70498L6.00611 8.91063C5.9424 9.00985 5.90473 9.12442 5.8968 9.24314C5.88886 9.36186 5.91092 9.48067 5.96082 9.58797V9.58797Z" stroke="white" stroke-width="1.5" stroke-linecap="round" stroke-linejoin="round"/>
</svg>
