<svg width="25" height="25" viewBox="0 0 25 25" fill="none" xmlns="http://www.w3.org/2000/svg">
<path d="M12.5 25C19.4036 25 25 19.4036 25 12.5C25 5.59644 19.4036 0 12.5 0C5.59644 0 0 5.59644 0 12.5C0 19.4036 5.59644 25 12.5 25Z" fill="#4D76A1"/>
<path fill-rule="evenodd" clip-rule="evenodd" d="M12.0279 17.9824H13.009C13.009 17.9824 13.3053 17.9499 13.4566 17.7868C13.5959 17.637 13.5914 17.3558 13.5914 17.3558C13.5914 17.3558 13.5723 16.0394 14.1832 15.8455C14.7855 15.6545 15.559 17.1178 16.3787 17.6805C16.9986 18.1063 17.4697 18.0129 17.4697 18.0129L19.6616 17.9824C19.6616 17.9824 20.8083 17.9118 20.2646 17.0102C20.22 16.9365 19.9479 16.3433 18.6348 15.1244C17.2604 13.8488 17.4445 14.0551 19.1001 11.8485C20.1084 10.5046 20.5115 9.68419 20.3856 9.33279C20.2655 8.99811 19.5239 9.08657 19.5239 9.08657L17.0559 9.10195C17.0559 9.10195 16.873 9.07699 16.7373 9.1581C16.6047 9.23765 16.5193 9.42304 16.5193 9.42304C16.5193 9.42304 16.1287 10.463 15.6078 11.3473C14.5088 13.2135 14.0694 13.312 13.8898 13.1961C13.472 12.9261 13.5763 12.1112 13.5763 11.5323C13.5763 9.72385 13.8506 8.96981 13.0422 8.77462C12.7739 8.70978 12.5765 8.66699 11.8904 8.66009C11.0098 8.65095 10.2644 8.66276 9.8424 8.86954C9.56164 9.00702 9.34506 9.31341 9.47697 9.33101C9.64007 9.35285 10.0095 9.43061 10.2054 9.69733C10.4583 10.0414 10.4494 10.8141 10.4494 10.8141C10.4494 10.8141 10.5947 12.943 10.11 13.2075C9.77734 13.3889 9.32099 13.0185 8.34123 11.3255C7.83921 10.4583 7.46019 9.49969 7.46019 9.49969C7.46019 9.49969 7.3871 9.32054 7.25675 9.22472C7.09854 9.10863 6.8775 9.07164 6.8775 9.07164L4.53227 9.08702C4.53227 9.08702 4.18021 9.09682 4.05097 9.2499C3.936 9.38605 4.04184 9.6677 4.04184 9.6677C4.04184 9.6677 5.87791 13.9633 7.95686 16.128C9.86312 18.1127 12.0279 17.9824 12.0279 17.9824Z" fill="white"/>
</svg>
