<svg width="25" height="25" viewBox="0 0 25 25" fill="none" xmlns="http://www.w3.org/2000/svg">
<path d="M0 25L2.53501 17.7571C1.56147 15.9933 1.04849 14.0021 1.04849 11.9758C1.04849 8.77695 2.29414 5.76953 4.5561 3.50767C6.81807 1.2458 9.82539 0 13.0243 0C16.2231 0 19.2305 1.24565 21.4924 3.50762C23.7543 5.76958 25 8.7769 25 11.9757C25 15.1746 23.7543 18.182 21.4924 20.4438C19.2305 22.7058 16.2231 23.9515 13.0243 23.9515C10.9979 23.9515 9.00674 23.4385 7.24292 22.4649L0 25Z" fill="#86F28B"/>
<path d="M10.3035 14.6964C13.1669 17.5598 16.4166 18.9525 17.5619 17.8072L18.9444 16.4247C19.2308 16.1383 19.2308 15.6741 18.9444 15.3878L17.2163 13.6596C16.9299 13.3732 16.4657 13.3732 16.1793 13.6596L15.1424 14.6965C13.019 13.6907 11.3093 11.9809 10.3035 9.85757L11.3404 8.82066C11.6268 8.53433 11.6268 8.07007 11.3404 7.78374L9.61226 6.05557C9.32593 5.76924 8.86168 5.76924 8.57535 6.05557L7.19283 7.43809C6.04742 8.5834 7.44014 11.8331 10.3035 14.6964Z" fill="white"/>
<path d="M18.9448 15.3877L17.2167 13.6595C16.9303 13.3732 16.4661 13.3732 16.1798 13.6595L15.1428 14.6964C14.0812 14.1936 13.1229 13.5146 12.3043 12.696L10.3039 14.6964C13.1673 17.5598 16.417 18.9525 17.5623 17.8072L18.9448 16.4247C19.2312 16.1382 19.2312 15.674 18.9448 15.3877Z" fill="#DCF4FF"/>
</svg>
